<svg width="31" height="32" viewBox="0 0 31 32" fill="none" xmlns="http://www.w3.org/2000/svg">
<g id="Documents/Copy-Document">
<g id="Icon">
<path d="M20.3957 11.027H14.0536C13.5685 11.027 13.1753 10.6338 13.1753 10.1487C13.1753 9.66358 13.5685 9.27034 14.0536 9.27034H20.3957C20.8808 9.27034 21.274 9.66358 21.274 10.1487C21.274 10.6338 20.8808 11.027 20.3957 11.027Z" fill="black"/>
<path d="M14.0924 16.8524H18.6132C19.0983 16.8524 19.4915 17.2457 19.4915 17.7308C19.4915 18.2158 19.0983 18.6091 18.6132 18.6091H14.0924C13.6073 18.6091 13.214 18.2158 13.214 17.7308C13.214 17.2457 13.6073 16.8524 14.0924 16.8524Z" fill="black"/>
<path d="M22.204 13.0549H14.0536C13.712 13.0136 13.3771 13.1726 13.1932 13.4635C13.0093 13.7543 13.0093 14.1251 13.1932 14.416C13.3771 14.7068 13.712 14.8659 14.0536 14.8245H22.204C22.6516 14.7703 22.9882 14.3905 22.9882 13.9397C22.9882 13.4889 22.6516 13.1091 22.204 13.0549Z" fill="black"/>
<path fill-rule="evenodd" clip-rule="evenodd" d="M15.4874 3.08325H20.7574C24.1459 3.08325 26.8928 5.83017 26.8928 9.21867V18.6737C26.9166 21.2437 25.3327 23.5549 22.9274 24.4603C22.6798 27.1257 20.4375 29.1606 17.7607 29.1491H11.3024C7.91387 29.1491 5.16695 26.4022 5.16695 23.0137V12.3962C5.14796 9.76827 7.10463 7.54479 9.71361 7.2295C10.56 4.75976 12.8766 3.09614 15.4874 3.08325ZM11.2507 27.1599H17.709C19.1529 27.161 20.4205 26.1997 20.809 24.8091H15.4874C12.0989 24.8091 9.35195 22.0622 9.35195 18.6737V9.27034C7.99099 9.6752 7.05656 10.9246 7.05278 12.3445V22.962C7.05278 25.2804 8.93225 27.1599 11.2507 27.1599ZM24.9553 18.6737C24.9553 20.9921 23.0758 22.8716 20.7574 22.8716H15.4874C13.1719 22.8645 11.2965 20.9892 11.2894 18.6737V9.21867C11.2965 6.90317 13.1719 5.02784 15.4874 5.02075H20.7574C23.0758 5.02075 24.9553 6.90022 24.9553 9.21867V18.6737Z" fill="black"/>
</g>
</g>
</svg>
