<svg width="30" height="30" viewBox="0 0 30 30" fill="none" xmlns="http://www.w3.org/2000/svg">
<g id="icons8-1c 1">
<path id="Vector" d="M0 12H2V23H4V10H0V12Z" fill="#C74343"/>
<path id="Vector_2" d="M2 9H5V23H7V7H2V9ZM11 15C11 11.691 13.691 9 17 9C20.309 9 23 11.691 23 15H25C25 10.589 21.411 7 17 7C12.589 7 9 10.589 9 15C9 19.411 12.589 23 17 23H30V21H17C13.691 21 11 18.309 11 15Z" fill="#C74343"/>
<path id="Vector_3" d="M17 17C15.897 17 15 16.103 15 15C15 13.897 15.897 13 17 13C18.103 13 19 13.897 19 15H21C21 12.794 19.206 11 17 11C14.794 11 13 12.794 13 15C13 17.206 14.794 19 17 19H30V17H17Z" fill="#C74343"/>
</g>
</svg>
