<svg width="30" height="30" viewBox="0 0 30 30" fill="none" xmlns="http://www.w3.org/2000/svg">
<g id="&#208;&#161;&#208;&#187;&#208;&#190;&#208;&#185; 2">
<path id="Vector" d="M15.0004 19.8986L9.90048 15L15.0004 10.1014V0L0.435454 13.99C0.156633 14.2579 0 14.6212 0 15C0 15.3788 0.156633 15.7421 0.435454 16.01L15.0004 30C15.0004 30 17.2313 28.5714 17.2313 25C17.1159 23.1047 16.3286 21.3045 15.0004 19.8986Z" fill="#2684FF"/>
<path id="Vector_2" d="M10.697 14.0479L10.7944 14.1414L15.0004 10.1014V0L7.11709 7.57143C7.70984 9.99033 8.94295 12.2212 10.697 14.0479Z" fill="#1D78F2"/>
<path id="Vector_3" d="M11.773 13.0607L11.8474 13.1321L15.0019 10.1021V0L8.40733 6.33286C8.82084 8.84316 9.99093 11.1821 11.773 13.0607Z" fill="#126AE5"/>
<path id="Vector_4" d="M15.0004 10.1014V0L9.79496 5C9.90893 7.65372 11.0094 10.1803 12.8967 12.1214L15.0004 10.1014Z" fill="#0B60DA"/>
<path id="Vector_5" d="M11.2822 5C11.2822 8.39 13.8158 10.9793 13.9482 11.1114L15.0004 10.1014V0L11.4146 3.44429C11.3256 3.95844 11.2814 4.4788 11.2822 5Z" fill="#0154CE"/>
<path id="Vector_6" d="M15.0004 10.1014L20.0995 15L15.0004 19.8986V30L29.5646 16.01C29.8434 15.7421 30 15.3788 30 15C30 14.6212 29.8434 14.2579 29.5646 13.99L15.0004 0C15.0004 0 12.7695 1.42857 12.7695 5C12.8849 6.89527 13.6722 8.69551 15.0004 10.1014Z" fill="#2482FD"/>
<path id="Vector_7" d="M19.3032 15.9522L19.2058 15.8586L15.0005 19.8986V30.0001L22.8831 22.4286C22.2903 20.0097 21.0572 17.7789 19.3032 15.9522Z" fill="#1D78F2"/>
<path id="Vector_8" d="M18.227 16.9393L18.1527 16.8679L14.9989 19.8979V30.0001L21.592 23.6672C21.1785 21.1571 20.0087 18.8182 18.227 16.9393Z" fill="#126AE5"/>
<path id="Vector_9" d="M15.0005 19.8987V30.0001L20.206 25.0001C20.0919 22.3463 18.9911 19.8196 17.1035 17.8787L15.0005 19.8987Z" fill="#0B60DA"/>
<path id="Vector_10" d="M18.7187 25.0001C18.7187 21.6101 16.1851 19.0208 16.052 18.8887L15.0005 19.8987V30.0001L18.5863 26.5558C18.6749 26.0416 18.7192 25.5213 18.7187 25.0001Z" fill="#0154CE"/>
<path id="Vector_11" d="M15.0004 19.8986L9.90049 15H1.61487V17.1429L15.0004 30C15.0004 30 17.2313 28.5714 17.2313 25C17.1159 23.1047 16.3286 21.3045 15.0004 19.8986Z" fill="#2684FF"/>
</g>
</svg>
