<svg width="30" height="30" viewBox="0 0 30 30" fill="none" xmlns="http://www.w3.org/2000/svg">
<g id="wikipedia-svgrepo-com 1" clip-path="url(#clip0_131_512)">
<path id="Vector" d="M0 0V30H30V0H0ZM26.1521 7.25612C26.1521 7.39211 26.0419 7.50238 25.9059 7.50238H25.2167C24.9653 7.50238 24.7391 7.65444 24.6443 7.88723L18.3556 23.3169L15.1883 16.207L11.7995 23.3169L5.31383 7.88117C5.2174 7.65172 4.99277 7.5025 4.74391 7.5025H4.09413C3.95814 7.5025 3.84787 7.39223 3.84787 7.25624V6.68299H9.4516L9.43589 7.26292C9.43231 7.39631 9.32315 7.50263 9.18963 7.50263H8.2518C7.90281 7.50263 7.66359 7.85434 7.79191 8.17886L12.3453 19.6977L14.6482 14.7066L11.7381 7.8782C11.6409 7.65036 11.4171 7.50238 11.1694 7.50238H10.7167C10.5807 7.50238 10.4704 7.39211 10.4704 7.25612V6.68286H14.6788V7.25612C14.6788 7.39211 14.5685 7.50238 14.4325 7.50238C14.0773 7.50238 13.838 7.86559 13.978 8.19197L15.6977 12.1981L17.4535 8.19568C17.5968 7.86893 17.3575 7.5025 17.0007 7.5025H16.3428C16.2068 7.5025 16.0965 7.39223 16.0965 7.25624V6.68299H20.5041V7.25624C20.5041 7.39223 20.3939 7.5025 20.2579 7.5025H19.5243C19.2843 7.5025 19.066 7.64146 18.9644 7.85879L16.2517 13.66L18.7845 19.6119L23.2165 8.1733C23.34 7.84965 23.1009 7.50263 22.7545 7.50263H21.6588C21.5228 7.50263 21.4126 7.39235 21.4126 7.25636V6.68311H26.1525V7.25612H26.1521Z" fill="black"/>
</g>
<defs>
<clipPath id="clip0_131_512">
<rect width="30" height="30" fill="white"/>
</clipPath>
</defs>
</svg>
