<svg width="47" height="48" viewBox="0 0 47 48" fill="none" xmlns="http://www.w3.org/2000/svg">
<g id="Interface essential/Bell">
<path id="Icon" fill-rule="evenodd" clip-rule="evenodd" d="M41.3337 30.8151C40.4637 30.0709 39.9628 28.9833 39.9629 27.8384V18.3992C39.9629 10.6638 32.952 4.41675 24.2962 4.41675C15.6404 4.41675 8.62953 10.6638 8.62953 18.3992V27.8384C8.6296 28.9833 8.12874 30.0709 7.2587 30.8151C4.30161 33.4588 6.39703 37.963 10.5879 37.963H18.0295C18.979 40.6075 21.4864 42.3714 24.2962 42.3714C27.106 42.3714 29.6134 40.6075 30.5629 37.963H38.0045C42.1954 37.963 44.2908 33.4588 41.3337 30.8151ZM24.2962 39.4317C23.1306 39.4274 22.0322 38.8854 21.3195 37.963H27.1945C26.5045 38.8708 25.4363 39.4121 24.2962 39.4317ZM38.0241 35.0255C38.7361 35.09 39.4139 34.7082 39.7279 34.0659C39.8803 33.679 39.7415 33.2382 39.3949 33.0084C37.9195 31.6922 37.0664 29.8155 37.0449 27.8384V18.3992C37.0449 12.3088 31.3266 7.35425 24.3158 7.35425C17.3049 7.35425 11.5866 12.3088 11.5866 18.3992V27.8384C11.5651 29.8155 10.7121 31.6922 9.23661 33.0084C8.88278 33.2324 8.73543 33.6744 8.88411 34.0659C9.19802 34.7082 9.87589 35.09 10.5879 35.0255H38.0241Z" fill="black"/>
</g>
</svg>
