<svg width="16" height="16" viewBox="0 0 16 16" fill="none" xmlns="http://www.w3.org/2000/svg">
<g id="mouse and keyboard/Keyboard">
<g id="Icon">
<path fill-rule="evenodd" clip-rule="evenodd" d="M3.23826 2.66675H12.7621C13.814 2.66675 14.6668 3.56218 14.6668 4.66675V11.3334C14.6668 12.438 13.814 13.3334 12.7621 13.3334H3.23826C2.18629 13.3334 1.3335 12.438 1.3335 11.3334V4.66675C1.3335 3.56218 2.18629 2.66675 3.23826 2.66675ZM12.7619 12.3267C13.2844 12.3267 13.708 11.8819 13.708 11.3333V4.66668C13.7097 4.39975 13.609 4.14332 13.4287 3.9552C13.2483 3.76707 13.0034 3.66309 12.7492 3.66668H3.22542C2.97341 3.66667 2.73182 3.77224 2.55422 3.95997C2.37662 4.1477 2.2777 4.40207 2.27939 4.66668V11.3333C2.27937 11.5991 2.38078 11.8538 2.56095 12.0405C2.74112 12.2272 2.98502 12.3302 3.23812 12.3267H12.7619Z" fill="black"/>
<path d="M3.54952 7.96834C3.54952 7.61768 3.83378 7.33341 4.18444 7.33341C4.5351 7.33341 4.81936 7.61768 4.81936 7.96834V8.03183C4.81936 8.38248 4.5351 8.66675 4.18444 8.66675C3.83378 8.66675 3.54952 8.38248 3.54952 8.03183V7.96834Z" fill="black"/>
<path d="M6.0892 7.96834C6.0892 7.61768 6.37346 7.33341 6.72412 7.33341C7.07478 7.33341 7.35904 7.61768 7.35904 7.96834V8.03183C7.35904 8.38248 7.07478 8.66675 6.72412 8.66675C6.37346 8.66675 6.0892 8.38248 6.0892 8.03183V7.96834Z" fill="black"/>
<path d="M8.62888 7.96834C8.62888 7.61768 8.91315 7.33341 9.2638 7.33341C9.61446 7.33341 9.89872 7.61768 9.89872 7.96834V8.03183C9.89872 8.38248 9.61446 8.66675 9.2638 8.66675C8.91315 8.66675 8.62888 8.38248 8.62888 8.03183V7.96834Z" fill="black"/>
<path d="M11.1686 7.96834C11.1686 7.61768 11.4528 7.33341 11.8035 7.33341C12.1541 7.33341 12.4384 7.61768 12.4384 7.96834V8.03183C12.4384 8.38248 12.1541 8.66675 11.8035 8.66675C11.4528 8.66675 11.1686 8.38248 11.1686 8.03183V7.96834Z" fill="black"/>
<path d="M3.54952 5.30167C3.54952 4.95101 3.83378 4.66675 4.18444 4.66675C4.5351 4.66675 4.81936 4.95101 4.81936 5.30167V5.36516C4.81936 5.71582 4.5351 6.00008 4.18444 6.00008C3.83378 6.00008 3.54952 5.71582 3.54952 5.36516V5.30167Z" fill="black"/>
<path d="M6.0892 5.30167C6.0892 4.95101 6.37346 4.66675 6.72412 4.66675C7.07478 4.66675 7.35904 4.95101 7.35904 5.30167V5.36516C7.35904 5.71582 7.07478 6.00008 6.72412 6.00008C6.37346 6.00008 6.0892 5.71582 6.0892 5.36516V5.30167Z" fill="black"/>
<path d="M8.62888 5.30167C8.62888 4.95101 8.91315 4.66675 9.2638 4.66675C9.61446 4.66675 9.89872 4.95101 9.89872 5.30167V5.36516C9.89872 5.71582 9.61446 6.00008 9.2638 6.00008C8.91315 6.00008 8.62888 5.71582 8.62888 5.36516V5.30167Z" fill="black"/>
<path d="M11.1686 5.30167C11.1686 4.95101 11.4528 4.66675 11.8035 4.66675C12.1541 4.66675 12.4384 4.95101 12.4384 5.30167V5.36516C12.4384 5.71582 12.1541 6.00008 11.8035 6.00008C11.4528 6.00008 11.1686 5.71582 11.1686 5.36516V5.30167Z" fill="black"/>
<path d="M5.13682 10.6401C5.13682 10.2866 5.42336 10.0001 5.77682 10.0001H10.2111C10.5646 10.0001 10.8511 10.2866 10.8511 10.6401V10.6934C10.8511 11.0469 10.5646 11.3334 10.2111 11.3334H5.77682C5.42336 11.3334 5.13682 11.0469 5.13682 10.6934V10.6401Z" fill="black"/>
</g>
</g>
</svg>
