<svg width="16" height="16" viewBox="0 0 16 16" fill="none" xmlns="http://www.w3.org/2000/svg">
<g id="Interface essential/Minus-circle">
<g id="Icon">
<path fill-rule="evenodd" clip-rule="evenodd" d="M7.62668 1.33337H8.37335C11.8491 1.33337 14.6667 4.151 14.6667 7.62671V8.37337C14.6667 11.8491 11.8491 14.6667 8.37335 14.6667H7.62668C4.15097 14.6667 1.33334 11.8491 1.33334 8.37337V7.62671C1.33334 4.151 4.15097 1.33337 7.62668 1.33337ZM8.37334 13.6667C11.2877 13.6449 13.6449 11.2877 13.6667 8.37337V7.62671C13.6449 4.71235 11.2877 2.35515 8.37334 2.33337H7.62668C4.71232 2.35515 2.35512 4.71235 2.33334 7.62671V8.37337C2.35512 11.2877 4.71232 13.6449 7.62668 13.6667H8.37334Z" fill="black"/>
<path d="M10.6667 7.50004H5.33334C5.0572 7.50004 4.83334 7.7239 4.83334 8.00004C4.83334 8.27618 5.0572 8.50004 5.33334 8.50004H10.6667C10.9428 8.50004 11.1667 8.27618 11.1667 8.00004C11.1667 7.7239 10.9428 7.50004 10.6667 7.50004Z" fill="black"/>
</g>
</g>
</svg>
