<svg width="16" height="16" viewBox="0 0 16 16" fill="none" xmlns="http://www.w3.org/2000/svg">
<g id="Interface essential/Space-Shuttle">
<g id="Icon">
<path d="M7.92001 4.98012C7.35668 4.98012 6.90001 5.43679 6.90001 6.00012C6.90001 6.56345 7.35668 7.02012 7.92001 7.02012C8.48334 7.02012 8.94001 6.56345 8.94001 6.00012C8.93638 5.43831 8.48183 4.98376 7.92001 4.98012Z" fill="black"/>
<path d="M7.42001 8.16679C7.4236 7.89215 7.64537 7.67038 7.92001 7.66679C8.19466 7.67038 8.41642 7.89215 8.42001 8.16679V9.33346C8.42001 9.6096 8.19616 9.83346 7.92001 9.83346C7.64387 9.83346 7.42001 9.6096 7.42001 9.33346V8.16679Z" fill="black"/>
<path fill-rule="evenodd" clip-rule="evenodd" d="M11.7733 9.38012L13.1733 9.84679C13.5616 9.98083 13.8251 10.3428 13.8333 10.7535V13.4201C13.8333 14.1086 13.2752 14.6668 12.5867 14.6668C12.4527 14.6669 12.3198 14.6444 12.1933 14.6001L11.5267 14.3735C11.3361 14.5643 11.0764 14.6701 10.8067 14.6668H9.79335C9.32176 14.6936 8.91559 14.3378 8.88001 13.8668V12.1268C8.84438 11.63 8.41733 11.2534 7.92001 11.2801C7.42269 11.2534 6.99565 11.63 6.96001 12.1268V13.8668C6.92444 14.3378 6.51826 14.6936 6.04668 14.6668H5.03334C4.7636 14.6701 4.50396 14.5643 4.31335 14.3735L3.64668 14.6001C3.52027 14.6444 3.38728 14.6669 3.25335 14.6668C2.57252 14.6706 2.01456 14.1275 2.00001 13.4468V10.7801C1.99796 10.3579 2.26659 9.98179 2.66668 9.84679L4.06668 9.38012V7.26012C4.1142 4.91031 5.34555 2.74352 7.34001 1.50012C7.51327 1.3899 7.71467 1.33202 7.92001 1.33346C8.12551 1.33086 8.32723 1.38883 8.50001 1.50012C10.4945 2.74352 11.7258 4.91031 11.7733 7.26012V9.38012ZM3.32001 13.6535L3.53334 13.5801L3.55334 10.6135L3.00668 10.7935V13.4201C3.00668 13.5564 3.11711 13.6668 3.25334 13.6668L3.32001 13.6535ZM10.7067 13.5801H9.92001V12.1268C9.87358 11.0562 8.9916 10.2125 7.92001 10.2135C6.84842 10.2125 5.96645 11.0562 5.92001 12.1268V13.6001H5.13334V7.26012C5.18843 5.27531 6.23487 3.45029 7.92001 2.40012C9.60964 3.45001 10.659 5.27829 10.7133 7.26679L10.7067 13.5801ZM12.6 13.6468C12.7362 13.6468 12.8467 13.5364 12.8467 13.4001V10.7801L12.3067 10.6001V13.5735L12.52 13.6468H12.6Z" fill="black"/>
</g>
</g>
</svg>
