<svg width="47" height="48" viewBox="0 0 47 48" fill="none" xmlns="http://www.w3.org/2000/svg">
<g id="Interface essential/Setting">
<g id="Icon">
<path fill-rule="evenodd" clip-rule="evenodd" d="M37.6517 17.5978C38.0248 18.5068 38.9087 19.1014 39.8912 19.1042C41.2247 19.115 42.3 20.1991 42.3 21.5326V25.7234C42.3 27.0645 41.2128 28.1517 39.8716 28.1517C38.8891 28.1546 38.0052 28.7492 37.6322 29.6581C37.2592 30.5671 37.4706 31.6112 38.1679 32.3034C39.1032 33.2619 39.1032 34.7916 38.1679 35.7501L35.2304 38.6876C34.2719 39.6229 32.7422 39.6229 31.7837 38.6876C31.3416 38.2192 30.724 37.9565 30.08 37.963C29.4325 37.9578 28.8098 38.2113 28.3502 38.6673C27.8905 39.1232 27.632 39.7439 27.632 40.3913C27.632 41.7325 26.5448 42.8197 25.2037 42.8197H21.0129C19.6717 42.8197 18.5845 41.7325 18.5845 40.3913C18.5846 39.7439 18.326 39.1232 17.8664 38.6673C17.4067 38.2113 16.784 37.9578 16.1366 37.963C15.4925 37.9565 14.875 38.2192 14.4329 38.6876C13.4744 39.6229 11.9447 39.6229 10.9862 38.6876L8.04871 35.7501C7.11335 34.7916 7.11335 33.2619 8.04871 32.3034C8.74597 31.6112 8.95742 30.5671 8.58442 29.6581C8.21141 28.7492 7.32745 28.1546 6.34496 28.1517C5.70092 28.1517 5.08327 27.8959 4.62787 27.4405C4.17247 26.9851 3.91663 26.3674 3.91663 25.7234V21.5326C3.91663 20.1914 5.00383 19.1042 6.34496 19.1042C7.32745 19.1014 8.21141 18.5068 8.58442 17.5978C8.95742 16.6889 8.74597 15.6448 8.04871 14.9526C7.11335 13.9941 7.11335 12.4644 8.04871 11.5059L10.9862 8.56841C11.9447 7.63305 13.4744 7.63305 14.4329 8.56841C14.875 9.03684 15.4925 9.29947 16.1366 9.293C16.7875 9.29827 17.4132 9.04206 17.8734 8.58183C18.3336 8.12161 18.5898 7.49591 18.5845 6.84508C18.5845 5.50395 19.6717 4.41675 21.0129 4.41675H25.2233C26.5644 4.41675 27.6516 5.50395 27.6516 6.84508C27.6464 7.49591 27.9026 8.12161 28.3628 8.58183C28.823 9.04206 29.4487 9.29827 30.0995 9.293C30.7436 9.29947 31.3612 9.03684 31.8033 8.56841C32.7618 7.63305 34.2914 7.63305 35.25 8.56841L38.1875 11.5059C39.1228 12.4644 39.1228 13.9941 38.1875 14.9526C37.4902 15.6448 37.2787 16.6889 37.6517 17.5978ZM34.8583 28.5238C35.6227 26.66 37.3733 25.3868 39.382 25.2338L39.3233 22.0222C37.3364 21.8479 35.6133 20.5783 34.8583 18.7322C34.1187 16.8817 34.4574 14.7744 35.7395 13.2488L33.4875 10.9967C32.5324 11.7966 31.3257 12.2335 30.08 12.2305C27.3047 12.2237 24.9856 10.1162 24.7141 7.35425H21.5025C21.2397 10.1206 18.9154 12.2328 16.1366 12.2305C14.8909 12.2335 13.6842 11.7966 12.7291 10.9967L10.5358 13.2488C11.798 14.786 12.1139 16.8923 11.3583 18.7322C10.6033 20.5783 8.8802 21.8479 6.89329 22.0222V25.2338C8.8802 25.4081 10.6033 26.6777 11.3583 28.5238C12.0978 30.3743 11.7592 32.4816 10.477 34.0072L12.7291 36.2592C13.6842 35.4594 14.8909 35.0225 16.1366 35.0255C18.9119 35.0323 21.231 37.1398 21.5025 39.9017H24.7141C24.959 37.1265 27.294 35.0045 30.08 35.0255C31.3257 35.0225 32.5324 35.4594 33.4875 36.2592L35.6808 34.0072C34.4186 32.47 34.1027 30.3637 34.8583 28.5238Z" fill="black"/>
<path fill-rule="evenodd" clip-rule="evenodd" d="M16.3325 23.628C16.3325 19.8858 19.3661 16.8522 23.1083 16.8522C24.9054 16.8522 26.6288 17.566 27.8995 18.8368C29.1702 20.1075 29.8841 21.8309 29.8841 23.628C29.8841 27.3702 26.8505 30.4038 23.1083 30.4038C19.3661 30.4038 16.3325 27.3702 16.3325 23.628ZM19.1916 23.628C19.1916 25.7911 20.9452 27.5447 23.1083 27.5447C25.2714 27.5447 27.025 25.7911 27.025 23.628C27.025 21.4649 25.2714 19.7113 23.1083 19.7113C20.9452 19.7113 19.1916 21.4649 19.1916 23.628Z" fill="black"/>
</g>
</g>
</svg>
