<svg width="16" height="16" viewBox="0 0 16 16" fill="none" xmlns="http://www.w3.org/2000/svg">
<g id="Interface essential/World">
<path id="Icon" fill-rule="evenodd" clip-rule="evenodd" d="M1.81957 5.25489C2.80608 2.87853 5.12721 1.33068 7.70019 1.33338C9.38636 1.33338 11.0034 2.00366 12.195 3.19658C13.3867 4.38951 14.0553 6.00721 14.0535 7.69338C14.0535 10.2664 12.5032 12.5859 10.1259 13.5699C7.74846 14.5539 5.01239 14.0085 3.19397 12.1882C1.37555 10.3679 0.833062 7.63124 1.81957 5.25489ZM12.6869 9.62671C12.9196 9.00888 13.0371 8.3536 13.0335 7.69338C13.0485 6.47917 12.6487 5.29621 11.9002 4.34004C11.6002 4.84004 11.0335 5.58671 10.3335 5.58671C10.0642 5.56506 9.79321 5.59216 9.53353 5.66671V5.74004C9.53353 5.86004 9.86019 6.18671 10.0335 6.36004C10.4652 6.68194 10.7526 7.161 10.8335 7.69338C10.8335 8.76004 10.9402 9.08671 11.0335 9.16671C11.6099 9.20793 12.1721 9.36435 12.6869 9.62671ZM2.36686 7.69338C2.3608 6.50741 2.75021 5.35325 3.47353 4.41338C3.66243 4.7579 4.02738 4.96864 4.42019 4.96004C4.95962 5.23203 5.43643 5.61348 5.82019 6.08004C5.53783 6.25366 5.28188 6.46695 5.06019 6.71338C5.03962 6.73319 5.01721 6.75501 4.99347 6.77813C4.80956 6.95722 4.54571 7.21414 4.43353 7.22004C4.12488 7.21071 3.82607 7.32923 3.60772 7.54757C3.38937 7.76592 3.27086 8.06473 3.28019 8.37338C3.28115 8.44979 3.29938 8.525 3.33353 8.59338L3.93353 9.79338C3.94118 10.4836 4.05127 11.1688 4.26019 11.8267C3.04404 10.8004 2.34972 9.28462 2.36686 7.69338ZM5.8802 12.7067C6.46362 12.9185 7.07953 13.0268 7.70019 13.0267V13.0467C9.53501 13.059 11.2473 12.1273 12.2335 10.58C11.8314 10.3853 11.4021 10.2527 10.9602 10.1867C9.80686 10.1867 9.80686 8.53338 9.80686 7.73338C9.80686 7.61256 9.50966 7.31584 9.32601 7.1325C9.31712 7.12363 9.3085 7.11502 9.3002 7.10671C8.87155 6.78312 8.58676 6.30447 8.50686 5.77338C8.50686 4.62004 9.68019 4.62004 10.3069 4.62004C10.4802 4.61338 10.8935 4.12004 11.1469 3.62671C9.17002 1.95329 6.27666 1.94204 4.28686 3.60004C4.29695 3.65738 4.29695 3.71604 4.28686 3.77338C4.29353 3.93338 4.36686 3.93338 4.44019 3.93338C5.24019 3.93338 7.03353 5.56004 7.06019 6.32004C7.06126 6.49143 6.98898 6.65509 6.86159 6.76974C6.73419 6.88439 6.56385 6.93909 6.39353 6.92004C6.27353 6.92671 5.94686 7.25338 5.77353 7.42671C5.44922 7.85572 4.97135 8.14244 4.44019 8.22671C4.38686 8.22671 4.30686 8.22671 4.30686 8.29338L4.88686 9.40671C4.921 9.47508 4.93924 9.55029 4.94019 9.62671C4.94019 10.3534 5.10019 11.5334 5.44686 11.8867C5.68873 12.0963 5.84334 12.3888 5.8802 12.7067Z" fill="black"/>
</g>
</svg>
